<mxfile host="app.diagrams.net" modified="2022-05-15T17:41:23.916Z" agent="5.0 (Windows NT 10.0; Win64; x64) AppleWebKit/537.36 (KHTML, like Gecko) Chrome/101.0.4951.67 Safari/537.36" etag="PwsSr94lcUNgfd7GPvVp" version="18.0.4" type="github">
  <diagram id="C5RBs43oDa-KdzZeNtuy" name="Page-1">
    <mxGraphModel dx="1108" dy="1619" grid="1" gridSize="10" guides="1" tooltips="1" connect="1" arrows="1" fold="1" page="1" pageScale="1" pageWidth="827" pageHeight="1169" math="0" shadow="0">
      <root>
        <mxCell id="WIyWlLk6GJQsqaUBKTNV-0" />
        <mxCell id="WIyWlLk6GJQsqaUBKTNV-1" parent="WIyWlLk6GJQsqaUBKTNV-0" />
        <mxCell id="YdiF8NEJK3TXLWIDRS3v-0" value="" style="edgeStyle=orthogonalEdgeStyle;rounded=0;orthogonalLoop=1;jettySize=auto;html=1;" edge="1" parent="WIyWlLk6GJQsqaUBKTNV-1" source="YdiF8NEJK3TXLWIDRS3v-1" target="YdiF8NEJK3TXLWIDRS3v-5">
          <mxGeometry relative="1" as="geometry" />
        </mxCell>
        <mxCell id="YdiF8NEJK3TXLWIDRS3v-1" value="START" style="ellipse;whiteSpace=wrap;html=1;" vertex="1" parent="WIyWlLk6GJQsqaUBKTNV-1">
          <mxGeometry x="72.5" y="-1150" width="120" height="40" as="geometry" />
        </mxCell>
        <mxCell id="YdiF8NEJK3TXLWIDRS3v-2" style="edgeStyle=orthogonalEdgeStyle;rounded=0;orthogonalLoop=1;jettySize=auto;html=1;exitX=0.5;exitY=1;exitDx=0;exitDy=0;fontSize=9;" edge="1" parent="WIyWlLk6GJQsqaUBKTNV-1">
          <mxGeometry relative="1" as="geometry">
            <mxPoint x="722" y="-50" as="sourcePoint" />
            <mxPoint x="722" y="-50" as="targetPoint" />
          </mxGeometry>
        </mxCell>
        <mxCell id="YdiF8NEJK3TXLWIDRS3v-4" value="" style="edgeStyle=orthogonalEdgeStyle;rounded=0;orthogonalLoop=1;jettySize=auto;html=1;" edge="1" parent="WIyWlLk6GJQsqaUBKTNV-1" source="YdiF8NEJK3TXLWIDRS3v-5" target="YdiF8NEJK3TXLWIDRS3v-7">
          <mxGeometry relative="1" as="geometry" />
        </mxCell>
        <mxCell id="YdiF8NEJK3TXLWIDRS3v-5" value="Dsiplay string&lt;br&gt;Display questionC&lt;br&gt;Display question" style="shape=parallelogram;perimeter=parallelogramPerimeter;whiteSpace=wrap;html=1;fixedSize=1;" vertex="1" parent="WIyWlLk6GJQsqaUBKTNV-1">
          <mxGeometry x="62.5" y="-1090" width="140" height="50" as="geometry" />
        </mxCell>
        <mxCell id="YdiF8NEJK3TXLWIDRS3v-6" value="" style="edgeStyle=orthogonalEdgeStyle;rounded=0;orthogonalLoop=1;jettySize=auto;html=1;" edge="1" parent="WIyWlLk6GJQsqaUBKTNV-1" source="YdiF8NEJK3TXLWIDRS3v-7" target="YdiF8NEJK3TXLWIDRS3v-9">
          <mxGeometry relative="1" as="geometry" />
        </mxCell>
        <mxCell id="YdiF8NEJK3TXLWIDRS3v-7" value="CALL inputTaker" style="shape=process;whiteSpace=wrap;html=1;backgroundOutline=1;" vertex="1" parent="WIyWlLk6GJQsqaUBKTNV-1">
          <mxGeometry x="72.5" y="-1020" width="120" height="30" as="geometry" />
        </mxCell>
        <mxCell id="YdiF8NEJK3TXLWIDRS3v-8" style="edgeStyle=orthogonalEdgeStyle;rounded=0;orthogonalLoop=1;jettySize=auto;html=1;exitX=0.5;exitY=1;exitDx=0;exitDy=0;entryX=0.5;entryY=0;entryDx=0;entryDy=0;" edge="1" parent="WIyWlLk6GJQsqaUBKTNV-1" source="YdiF8NEJK3TXLWIDRS3v-9" target="YdiF8NEJK3TXLWIDRS3v-11">
          <mxGeometry relative="1" as="geometry" />
        </mxCell>
        <mxCell id="YdiF8NEJK3TXLWIDRS3v-9" value="CALL&amp;nbsp; combine" style="shape=process;whiteSpace=wrap;html=1;backgroundOutline=1;" vertex="1" parent="WIyWlLk6GJQsqaUBKTNV-1">
          <mxGeometry x="72.5" y="-965.5" width="120" height="25.5" as="geometry" />
        </mxCell>
        <mxCell id="YdiF8NEJK3TXLWIDRS3v-10" value="" style="edgeStyle=orthogonalEdgeStyle;rounded=0;orthogonalLoop=1;jettySize=auto;html=1;" edge="1" parent="WIyWlLk6GJQsqaUBKTNV-1" source="YdiF8NEJK3TXLWIDRS3v-11" target="YdiF8NEJK3TXLWIDRS3v-13">
          <mxGeometry relative="1" as="geometry" />
        </mxCell>
        <mxCell id="YdiF8NEJK3TXLWIDRS3v-11" value="CALL&amp;nbsp; ifBig" style="shape=process;whiteSpace=wrap;html=1;backgroundOutline=1;" vertex="1" parent="WIyWlLk6GJQsqaUBKTNV-1">
          <mxGeometry x="72.5" y="-920" width="120" height="29.5" as="geometry" />
        </mxCell>
        <mxCell id="YdiF8NEJK3TXLWIDRS3v-155" style="edgeStyle=orthogonalEdgeStyle;rounded=0;orthogonalLoop=1;jettySize=auto;html=1;exitX=0.5;exitY=1;exitDx=0;exitDy=0;entryX=0.5;entryY=0;entryDx=0;entryDy=0;" edge="1" parent="WIyWlLk6GJQsqaUBKTNV-1" source="YdiF8NEJK3TXLWIDRS3v-13" target="YdiF8NEJK3TXLWIDRS3v-14">
          <mxGeometry relative="1" as="geometry" />
        </mxCell>
        <mxCell id="YdiF8NEJK3TXLWIDRS3v-13" value="DI&amp;nbsp;&lt;font style=&quot;font-size: 10px&quot;&gt;&amp;lt;&lt;/font&gt;&lt;font style=&quot;font-size: 13px&quot;&gt;---&lt;/font&gt;&amp;nbsp;OFFSET y_values&lt;br&gt;[DI+1]&amp;nbsp;&lt;font style=&quot;font-size: 10px;&quot;&gt;&amp;lt;&lt;/font&gt;&lt;font style=&quot;font-size: 13px;&quot;&gt;---&lt;/font&gt;&amp;nbsp;0" style="rounded=1;whiteSpace=wrap;html=1;fontSize=12;glass=0;strokeWidth=1;shadow=0;" vertex="1" parent="WIyWlLk6GJQsqaUBKTNV-1">
          <mxGeometry x="47.5" y="-860" width="170" height="40" as="geometry" />
        </mxCell>
        <mxCell id="YdiF8NEJK3TXLWIDRS3v-14" value="[SI] &amp;gt; 238" style="rhombus;whiteSpace=wrap;html=1;shadow=0;fontFamily=Helvetica;fontSize=12;align=center;strokeWidth=1;spacing=6;spacingTop=-4;" vertex="1" parent="WIyWlLk6GJQsqaUBKTNV-1">
          <mxGeometry x="86.25" y="-795" width="100" height="40" as="geometry" />
        </mxCell>
        <mxCell id="YdiF8NEJK3TXLWIDRS3v-15" value="No" style="edgeStyle=orthogonalEdgeStyle;rounded=0;html=1;jettySize=auto;orthogonalLoop=1;fontSize=11;endArrow=block;endFill=0;endSize=8;strokeWidth=1;shadow=0;labelBackgroundColor=none;exitX=0.5;exitY=1;exitDx=0;exitDy=0;entryX=0.5;entryY=0;entryDx=0;entryDy=0;" edge="1" parent="WIyWlLk6GJQsqaUBKTNV-1" source="YdiF8NEJK3TXLWIDRS3v-14" target="YdiF8NEJK3TXLWIDRS3v-157">
          <mxGeometry x="-0.6822" y="14" relative="1" as="geometry">
            <mxPoint as="offset" />
            <mxPoint x="137" y="-730" as="targetPoint" />
            <Array as="points" />
            <mxPoint x="135.25" y="-695.5" as="sourcePoint" />
          </mxGeometry>
        </mxCell>
        <mxCell id="YdiF8NEJK3TXLWIDRS3v-16" value="Yes" style="rounded=0;html=1;jettySize=auto;orthogonalLoop=1;fontSize=11;endArrow=block;endFill=0;endSize=8;strokeWidth=1;shadow=0;labelBackgroundColor=none;edgeStyle=orthogonalEdgeStyle;exitX=0;exitY=0.5;exitDx=0;exitDy=0;" edge="1" parent="WIyWlLk6GJQsqaUBKTNV-1" source="YdiF8NEJK3TXLWIDRS3v-14">
          <mxGeometry x="-0.8925" y="10" relative="1" as="geometry">
            <mxPoint as="offset" />
            <mxPoint x="138" y="-610" as="targetPoint" />
            <Array as="points">
              <mxPoint x="46" y="-775" />
              <mxPoint x="46" y="-610" />
              <mxPoint x="138" y="-610" />
            </Array>
            <mxPoint x="85.25" y="-775.5" as="sourcePoint" />
          </mxGeometry>
        </mxCell>
        <mxCell id="YdiF8NEJK3TXLWIDRS3v-20" style="edgeStyle=orthogonalEdgeStyle;rounded=0;orthogonalLoop=1;jettySize=auto;html=1;exitX=0.5;exitY=1;exitDx=0;exitDy=0;entryX=0.5;entryY=0;entryDx=0;entryDy=0;" edge="1" parent="WIyWlLk6GJQsqaUBKTNV-1" source="YdiF8NEJK3TXLWIDRS3v-21" target="YdiF8NEJK3TXLWIDRS3v-150">
          <mxGeometry relative="1" as="geometry">
            <mxPoint x="137.765" y="-589.75" as="targetPoint" />
          </mxGeometry>
        </mxCell>
        <mxCell id="YdiF8NEJK3TXLWIDRS3v-21" value="CALL&amp;nbsp; all_Y_values" style="shape=process;whiteSpace=wrap;html=1;backgroundOutline=1;" vertex="1" parent="WIyWlLk6GJQsqaUBKTNV-1">
          <mxGeometry x="68.26" y="-649.75" width="137.5" height="29.5" as="geometry" />
        </mxCell>
        <mxCell id="YdiF8NEJK3TXLWIDRS3v-26" value="END" style="ellipse;whiteSpace=wrap;html=1;" vertex="1" parent="WIyWlLk6GJQsqaUBKTNV-1">
          <mxGeometry x="77.00999999999999" y="-510.5" width="120" height="40" as="geometry" />
        </mxCell>
        <mxCell id="YdiF8NEJK3TXLWIDRS3v-27" value="string db &quot;This code is for Final Exam Pre-work of ELE336 Course&quot;, 0Dh, 0Ah,&#39;$&#39;" style="rounded=0;whiteSpace=wrap;html=1;" vertex="1" parent="WIyWlLk6GJQsqaUBKTNV-1">
          <mxGeometry x="379.5" y="-1159" width="440" height="29" as="geometry" />
        </mxCell>
        <mxCell id="YdiF8NEJK3TXLWIDRS3v-28" value="question: db &quot;Enter radius value so that the circle will be drawn in the window: $&quot;" style="rounded=0;whiteSpace=wrap;html=1;" vertex="1" parent="WIyWlLk6GJQsqaUBKTNV-1">
          <mxGeometry x="360" y="-1120" width="429.5" height="30" as="geometry" />
        </mxCell>
        <mxCell id="YdiF8NEJK3TXLWIDRS3v-29" value="questionC: db &quot;Please make it three digits!&quot;, 0Dh, 0Ah,&#39;$&#39;" style="rounded=0;whiteSpace=wrap;html=1;" vertex="1" parent="WIyWlLk6GJQsqaUBKTNV-1">
          <mxGeometry x="440" y="-1080" width="316" height="20" as="geometry" />
        </mxCell>
        <mxCell id="YdiF8NEJK3TXLWIDRS3v-30" value="wrongInput: db &quot;Entered integer will draw a larger circle than the window !&quot;,0Dh, 0Ah,&#39;$&#39;" style="rounded=0;whiteSpace=wrap;html=1;" vertex="1" parent="WIyWlLk6GJQsqaUBKTNV-1">
          <mxGeometry x="310" y="-1050" width="485.5" height="25" as="geometry" />
        </mxCell>
        <mxCell id="YdiF8NEJK3TXLWIDRS3v-31" value="y_values db &quot;&quot;, &#39;$&#39;" style="rounded=0;whiteSpace=wrap;html=1;" vertex="1" parent="WIyWlLk6GJQsqaUBKTNV-1">
          <mxGeometry x="480" y="-1020" width="122.5" height="20" as="geometry" />
        </mxCell>
        <mxCell id="YdiF8NEJK3TXLWIDRS3v-32" value="newLine: db 0Dh, 0Ah,&#39;$&#39;" style="rounded=0;whiteSpace=wrap;html=1;" vertex="1" parent="WIyWlLk6GJQsqaUBKTNV-1">
          <mxGeometry x="620" y="-1020" width="149" height="20" as="geometry" />
        </mxCell>
        <mxCell id="YdiF8NEJK3TXLWIDRS3v-33" value="" style="edgeStyle=orthogonalEdgeStyle;rounded=0;orthogonalLoop=1;jettySize=auto;html=1;" edge="1" parent="WIyWlLk6GJQsqaUBKTNV-1" source="YdiF8NEJK3TXLWIDRS3v-34" target="YdiF8NEJK3TXLWIDRS3v-36">
          <mxGeometry relative="1" as="geometry" />
        </mxCell>
        <mxCell id="YdiF8NEJK3TXLWIDRS3v-34" value="inputTaker" style="ellipse;whiteSpace=wrap;html=1;" vertex="1" parent="WIyWlLk6GJQsqaUBKTNV-1">
          <mxGeometry x="270" y="-1010" width="120" height="40" as="geometry" />
        </mxCell>
        <mxCell id="YdiF8NEJK3TXLWIDRS3v-35" value="" style="edgeStyle=orthogonalEdgeStyle;rounded=0;orthogonalLoop=1;jettySize=auto;html=1;" edge="1" parent="WIyWlLk6GJQsqaUBKTNV-1" source="YdiF8NEJK3TXLWIDRS3v-36" target="YdiF8NEJK3TXLWIDRS3v-38">
          <mxGeometry relative="1" as="geometry" />
        </mxCell>
        <mxCell id="YdiF8NEJK3TXLWIDRS3v-36" value="DI&amp;nbsp;&lt;font style=&quot;font-size: 10px&quot;&gt;&amp;lt;&lt;/font&gt;&lt;font style=&quot;font-size: 13px&quot;&gt;---&lt;/font&gt;&amp;nbsp; 30h&lt;br&gt;CX&amp;nbsp;&lt;font style=&quot;font-size: 10px&quot;&gt;&amp;lt;&lt;/font&gt;&lt;font style=&quot;font-size: 13px&quot;&gt;---&lt;/font&gt;&amp;nbsp; 3d" style="rounded=1;whiteSpace=wrap;html=1;fontSize=12;glass=0;strokeWidth=1;shadow=0;" vertex="1" parent="WIyWlLk6GJQsqaUBKTNV-1">
          <mxGeometry x="272.5" y="-950" width="115" height="40" as="geometry" />
        </mxCell>
        <mxCell id="YdiF8NEJK3TXLWIDRS3v-37" value="" style="edgeStyle=orthogonalEdgeStyle;rounded=0;orthogonalLoop=1;jettySize=auto;html=1;" edge="1" parent="WIyWlLk6GJQsqaUBKTNV-1" source="YdiF8NEJK3TXLWIDRS3v-38" target="YdiF8NEJK3TXLWIDRS3v-40">
          <mxGeometry relative="1" as="geometry" />
        </mxCell>
        <mxCell id="YdiF8NEJK3TXLWIDRS3v-38" value="AH&amp;nbsp;&lt;font style=&quot;font-size: 10px&quot;&gt;&amp;lt;&lt;/font&gt;&lt;font style=&quot;font-size: 13px&quot;&gt;---&lt;/font&gt;&amp;nbsp; 12h&lt;br&gt;AL&amp;nbsp;&lt;font style=&quot;font-size: 10px&quot;&gt;&amp;lt;&lt;/font&gt;&lt;font style=&quot;font-size: 13px&quot;&gt;---&lt;/font&gt;&amp;nbsp; 01h" style="rounded=1;whiteSpace=wrap;html=1;fontSize=12;glass=0;strokeWidth=1;shadow=0;" vertex="1" parent="WIyWlLk6GJQsqaUBKTNV-1">
          <mxGeometry x="277.25" y="-879.5" width="105.5" height="29.5" as="geometry" />
        </mxCell>
        <mxCell id="YdiF8NEJK3TXLWIDRS3v-39" value="" style="edgeStyle=orthogonalEdgeStyle;rounded=0;orthogonalLoop=1;jettySize=auto;html=1;" edge="1" parent="WIyWlLk6GJQsqaUBKTNV-1" source="YdiF8NEJK3TXLWIDRS3v-40" target="YdiF8NEJK3TXLWIDRS3v-42">
          <mxGeometry relative="1" as="geometry" />
        </mxCell>
        <mxCell id="YdiF8NEJK3TXLWIDRS3v-40" value="INT 21h" style="shape=process;whiteSpace=wrap;html=1;backgroundOutline=1;" vertex="1" parent="WIyWlLk6GJQsqaUBKTNV-1">
          <mxGeometry x="270" y="-830" width="120" height="20" as="geometry" />
        </mxCell>
        <mxCell id="YdiF8NEJK3TXLWIDRS3v-41" value="" style="edgeStyle=orthogonalEdgeStyle;rounded=0;orthogonalLoop=1;jettySize=auto;html=1;" edge="1" parent="WIyWlLk6GJQsqaUBKTNV-1" source="YdiF8NEJK3TXLWIDRS3v-42" target="YdiF8NEJK3TXLWIDRS3v-43">
          <mxGeometry relative="1" as="geometry" />
        </mxCell>
        <mxCell id="YdiF8NEJK3TXLWIDRS3v-42" value="[DI]&amp;nbsp;&lt;font style=&quot;font-size: 10px&quot;&gt;&amp;lt;&lt;/font&gt;&lt;font style=&quot;font-size: 13px&quot;&gt;---&lt;/font&gt;&amp;nbsp; AL&lt;br&gt;DI&amp;nbsp;&lt;font style=&quot;font-size: 10px&quot;&gt;&amp;lt;&lt;/font&gt;&lt;font style=&quot;font-size: 13px&quot;&gt;---&lt;/font&gt;&amp;nbsp; DI + 1&lt;br&gt;CX&amp;nbsp;&lt;font style=&quot;font-size: 10px&quot;&gt;&amp;lt;&lt;/font&gt;&lt;font style=&quot;font-size: 13px&quot;&gt;---&lt;/font&gt;&amp;nbsp; CX - 1" style="rounded=1;whiteSpace=wrap;html=1;fontSize=12;glass=0;strokeWidth=1;shadow=0;" vertex="1" parent="WIyWlLk6GJQsqaUBKTNV-1">
          <mxGeometry x="277.25" y="-784" width="105.5" height="50" as="geometry" />
        </mxCell>
        <mxCell id="YdiF8NEJK3TXLWIDRS3v-43" value="ZF = 1" style="rhombus;whiteSpace=wrap;html=1;shadow=0;fontFamily=Helvetica;fontSize=12;align=center;strokeWidth=1;spacing=6;spacingTop=-4;" vertex="1" parent="WIyWlLk6GJQsqaUBKTNV-1">
          <mxGeometry x="280" y="-730" width="100" height="30" as="geometry" />
        </mxCell>
        <mxCell id="YdiF8NEJK3TXLWIDRS3v-44" value="Yes" style="rounded=0;html=1;jettySize=auto;orthogonalLoop=1;fontSize=11;endArrow=block;endFill=0;endSize=8;strokeWidth=1;shadow=0;labelBackgroundColor=none;edgeStyle=orthogonalEdgeStyle;exitX=0.5;exitY=1;exitDx=0;exitDy=0;entryX=0.5;entryY=0;entryDx=0;entryDy=0;" edge="1" parent="WIyWlLk6GJQsqaUBKTNV-1" source="YdiF8NEJK3TXLWIDRS3v-43" target="YdiF8NEJK3TXLWIDRS3v-47">
          <mxGeometry x="0.0008" y="20" relative="1" as="geometry">
            <mxPoint as="offset" />
            <mxPoint x="450.5" y="-690" as="targetPoint" />
            <Array as="points">
              <mxPoint x="330.5" y="-680" />
              <mxPoint x="330.5" y="-655" />
            </Array>
            <mxPoint x="312" y="-668.75" as="sourcePoint" />
          </mxGeometry>
        </mxCell>
        <mxCell id="YdiF8NEJK3TXLWIDRS3v-45" value="No" style="edgeStyle=orthogonalEdgeStyle;rounded=0;html=1;jettySize=auto;orthogonalLoop=1;fontSize=11;endArrow=block;endFill=0;endSize=8;strokeWidth=1;shadow=0;labelBackgroundColor=none;exitX=0;exitY=0.5;exitDx=0;exitDy=0;" edge="1" parent="WIyWlLk6GJQsqaUBKTNV-1" source="YdiF8NEJK3TXLWIDRS3v-43">
          <mxGeometry x="-0.8569" y="-10" relative="1" as="geometry">
            <mxPoint as="offset" />
            <mxPoint x="330.5" y="-900" as="targetPoint" />
            <Array as="points">
              <mxPoint x="240.5" y="-715" />
            </Array>
            <mxPoint x="120.5" y="-745" as="sourcePoint" />
          </mxGeometry>
        </mxCell>
        <mxCell id="YdiF8NEJK3TXLWIDRS3v-46" value="" style="edgeStyle=orthogonalEdgeStyle;rounded=0;orthogonalLoop=1;jettySize=auto;html=1;" edge="1" parent="WIyWlLk6GJQsqaUBKTNV-1" source="YdiF8NEJK3TXLWIDRS3v-47" target="YdiF8NEJK3TXLWIDRS3v-48">
          <mxGeometry relative="1" as="geometry" />
        </mxCell>
        <mxCell id="YdiF8NEJK3TXLWIDRS3v-47" value="SI&amp;nbsp;&lt;font style=&quot;font-size: 10px&quot;&gt;&amp;lt;&lt;/font&gt;&lt;font style=&quot;font-size: 13px&quot;&gt;---&lt;/font&gt;&amp;nbsp; 50h&lt;br&gt;[SI]&amp;nbsp;&lt;font style=&quot;font-size: 10px&quot;&gt;&amp;lt;&lt;/font&gt;&lt;font style=&quot;font-size: 13px&quot;&gt;---&lt;/font&gt;&amp;nbsp; 0h&lt;br&gt;[SI+1]&amp;nbsp;&lt;font style=&quot;font-size: 10px;&quot;&gt;&amp;lt;&lt;/font&gt;&lt;font style=&quot;font-size: 13px;&quot;&gt;---&lt;/font&gt;&amp;nbsp; 0h" style="rounded=1;whiteSpace=wrap;html=1;fontSize=12;glass=0;strokeWidth=1;shadow=0;" vertex="1" parent="WIyWlLk6GJQsqaUBKTNV-1">
          <mxGeometry x="277.25" y="-680" width="105.5" height="50" as="geometry" />
        </mxCell>
        <mxCell id="YdiF8NEJK3TXLWIDRS3v-48" value="END" style="ellipse;whiteSpace=wrap;html=1;" vertex="1" parent="WIyWlLk6GJQsqaUBKTNV-1">
          <mxGeometry x="270" y="-610" width="120" height="40" as="geometry" />
        </mxCell>
        <mxCell id="YdiF8NEJK3TXLWIDRS3v-49" value="" style="edgeStyle=orthogonalEdgeStyle;rounded=0;orthogonalLoop=1;jettySize=auto;html=1;entryX=0.5;entryY=0;entryDx=0;entryDy=0;" edge="1" parent="WIyWlLk6GJQsqaUBKTNV-1" source="YdiF8NEJK3TXLWIDRS3v-50" target="YdiF8NEJK3TXLWIDRS3v-53">
          <mxGeometry relative="1" as="geometry">
            <mxPoint x="523" y="-920" as="targetPoint" />
          </mxGeometry>
        </mxCell>
        <mxCell id="YdiF8NEJK3TXLWIDRS3v-50" value="ifBig" style="ellipse;whiteSpace=wrap;html=1;" vertex="1" parent="WIyWlLk6GJQsqaUBKTNV-1">
          <mxGeometry x="464" y="-965.5" width="120" height="40" as="geometry" />
        </mxCell>
        <mxCell id="YdiF8NEJK3TXLWIDRS3v-53" value="[SI] &amp;lt; 238" style="rhombus;whiteSpace=wrap;html=1;shadow=0;fontFamily=Helvetica;fontSize=12;align=center;strokeWidth=1;spacing=6;spacingTop=-4;" vertex="1" parent="WIyWlLk6GJQsqaUBKTNV-1">
          <mxGeometry x="465.5" y="-900" width="117" height="50" as="geometry" />
        </mxCell>
        <mxCell id="YdiF8NEJK3TXLWIDRS3v-54" value="No" style="rounded=0;html=1;jettySize=auto;orthogonalLoop=1;fontSize=11;endArrow=block;endFill=0;endSize=8;strokeWidth=1;shadow=0;labelBackgroundColor=none;edgeStyle=orthogonalEdgeStyle;exitX=0.5;exitY=1;exitDx=0;exitDy=0;entryX=0.5;entryY=0;entryDx=0;entryDy=0;" edge="1" parent="WIyWlLk6GJQsqaUBKTNV-1" source="YdiF8NEJK3TXLWIDRS3v-53" target="YdiF8NEJK3TXLWIDRS3v-73">
          <mxGeometry y="-23" relative="1" as="geometry">
            <mxPoint as="offset" />
            <mxPoint x="523" y="-830" as="targetPoint" />
            <Array as="points" />
            <mxPoint x="359.5" y="-660" as="sourcePoint" />
          </mxGeometry>
        </mxCell>
        <mxCell id="YdiF8NEJK3TXLWIDRS3v-55" value="Yes" style="rounded=0;html=1;jettySize=auto;orthogonalLoop=1;fontSize=11;endArrow=block;endFill=0;endSize=8;strokeWidth=1;shadow=0;labelBackgroundColor=none;edgeStyle=orthogonalEdgeStyle;exitX=0;exitY=0.5;exitDx=0;exitDy=0;" edge="1" parent="WIyWlLk6GJQsqaUBKTNV-1" source="YdiF8NEJK3TXLWIDRS3v-53">
          <mxGeometry x="-0.8598" y="-15" relative="1" as="geometry">
            <mxPoint as="offset" />
            <mxPoint x="524" y="-630" as="targetPoint" />
            <Array as="points">
              <mxPoint x="440" y="-875" />
            </Array>
            <mxPoint x="460" y="-860" as="sourcePoint" />
          </mxGeometry>
        </mxCell>
        <mxCell id="YdiF8NEJK3TXLWIDRS3v-165" style="edgeStyle=orthogonalEdgeStyle;rounded=0;orthogonalLoop=1;jettySize=auto;html=1;exitX=0.5;exitY=1;exitDx=0;exitDy=0;entryX=0.5;entryY=0;entryDx=0;entryDy=0;" edge="1" parent="WIyWlLk6GJQsqaUBKTNV-1" source="YdiF8NEJK3TXLWIDRS3v-73" target="YdiF8NEJK3TXLWIDRS3v-75">
          <mxGeometry relative="1" as="geometry" />
        </mxCell>
        <mxCell id="YdiF8NEJK3TXLWIDRS3v-73" value="Display newLine&lt;br&gt;" style="shape=parallelogram;perimeter=parallelogramPerimeter;whiteSpace=wrap;html=1;fixedSize=1;" vertex="1" parent="WIyWlLk6GJQsqaUBKTNV-1">
          <mxGeometry x="454.25" y="-830" width="140" height="20" as="geometry" />
        </mxCell>
        <mxCell id="YdiF8NEJK3TXLWIDRS3v-163" value="" style="edgeStyle=orthogonalEdgeStyle;rounded=0;orthogonalLoop=1;jettySize=auto;html=1;exitX=0.5;exitY=1;exitDx=0;exitDy=0;entryX=0.5;entryY=0;entryDx=0;entryDy=0;" edge="1" parent="WIyWlLk6GJQsqaUBKTNV-1" source="YdiF8NEJK3TXLWIDRS3v-75" target="YdiF8NEJK3TXLWIDRS3v-77">
          <mxGeometry relative="1" as="geometry">
            <mxPoint x="530" y="-740" as="targetPoint" />
            <Array as="points" />
          </mxGeometry>
        </mxCell>
        <mxCell id="YdiF8NEJK3TXLWIDRS3v-75" value="AH&amp;nbsp;&lt;font style=&quot;font-size: 10px&quot;&gt;&amp;lt;&lt;/font&gt;&lt;font style=&quot;font-size: 13px&quot;&gt;---&lt;/font&gt;&amp;nbsp;00" style="rounded=1;whiteSpace=wrap;html=1;fontSize=12;glass=0;strokeWidth=1;shadow=0;" vertex="1" parent="WIyWlLk6GJQsqaUBKTNV-1">
          <mxGeometry x="474.25" y="-785" width="100" height="20" as="geometry" />
        </mxCell>
        <mxCell id="YdiF8NEJK3TXLWIDRS3v-76" value="" style="edgeStyle=orthogonalEdgeStyle;rounded=0;orthogonalLoop=1;jettySize=auto;html=1;" edge="1" parent="WIyWlLk6GJQsqaUBKTNV-1" source="YdiF8NEJK3TXLWIDRS3v-77" target="YdiF8NEJK3TXLWIDRS3v-79">
          <mxGeometry relative="1" as="geometry" />
        </mxCell>
        <mxCell id="YdiF8NEJK3TXLWIDRS3v-77" value="INT 16h" style="shape=process;whiteSpace=wrap;html=1;backgroundOutline=1;" vertex="1" parent="WIyWlLk6GJQsqaUBKTNV-1">
          <mxGeometry x="469" y="-740" width="110" height="20" as="geometry" />
        </mxCell>
        <mxCell id="YdiF8NEJK3TXLWIDRS3v-78" value="" style="edgeStyle=orthogonalEdgeStyle;rounded=0;orthogonalLoop=1;jettySize=auto;html=1;" edge="1" parent="WIyWlLk6GJQsqaUBKTNV-1" source="YdiF8NEJK3TXLWIDRS3v-79" target="YdiF8NEJK3TXLWIDRS3v-80">
          <mxGeometry relative="1" as="geometry" />
        </mxCell>
        <mxCell id="YdiF8NEJK3TXLWIDRS3v-79" value="Display newLine&lt;br&gt;Display newLine&lt;br&gt;Display wrongInput" style="shape=parallelogram;perimeter=parallelogramPerimeter;whiteSpace=wrap;html=1;fixedSize=1;" vertex="1" parent="WIyWlLk6GJQsqaUBKTNV-1">
          <mxGeometry x="449" y="-695" width="150.5" height="50" as="geometry" />
        </mxCell>
        <mxCell id="YdiF8NEJK3TXLWIDRS3v-80" value="END" style="ellipse;whiteSpace=wrap;html=1;" vertex="1" parent="WIyWlLk6GJQsqaUBKTNV-1">
          <mxGeometry x="464" y="-614.5" width="120" height="40" as="geometry" />
        </mxCell>
        <mxCell id="YdiF8NEJK3TXLWIDRS3v-81" value="" style="edgeStyle=orthogonalEdgeStyle;rounded=0;orthogonalLoop=1;jettySize=auto;html=1;" edge="1" parent="WIyWlLk6GJQsqaUBKTNV-1" source="YdiF8NEJK3TXLWIDRS3v-82" target="YdiF8NEJK3TXLWIDRS3v-84">
          <mxGeometry relative="1" as="geometry" />
        </mxCell>
        <mxCell id="YdiF8NEJK3TXLWIDRS3v-82" value="combine" style="ellipse;whiteSpace=wrap;html=1;" vertex="1" parent="WIyWlLk6GJQsqaUBKTNV-1">
          <mxGeometry x="669.5" y="-980" width="120" height="40" as="geometry" />
        </mxCell>
        <mxCell id="YdiF8NEJK3TXLWIDRS3v-83" value="" style="edgeStyle=orthogonalEdgeStyle;rounded=0;orthogonalLoop=1;jettySize=auto;html=1;" edge="1" parent="WIyWlLk6GJQsqaUBKTNV-1" source="YdiF8NEJK3TXLWIDRS3v-84" target="YdiF8NEJK3TXLWIDRS3v-86">
          <mxGeometry relative="1" as="geometry" />
        </mxCell>
        <mxCell id="YdiF8NEJK3TXLWIDRS3v-84" value="AL&amp;nbsp;&lt;font style=&quot;font-size: 10px&quot;&gt;&amp;lt;&lt;/font&gt;&lt;font style=&quot;font-size: 13px&quot;&gt;---&lt;/font&gt;&amp;nbsp; [DI-3]&lt;br&gt;AL&amp;nbsp;&lt;font style=&quot;font-size: 10px&quot;&gt;&amp;lt;&lt;/font&gt;&lt;font style=&quot;font-size: 13px&quot;&gt;---&lt;/font&gt;&amp;nbsp; AL - 30h&lt;br&gt;AH&amp;nbsp;&lt;font style=&quot;font-size: 10px&quot;&gt;&amp;lt;&lt;/font&gt;&lt;font style=&quot;font-size: 13px&quot;&gt;---&lt;/font&gt;&amp;nbsp; 100d&lt;br&gt;AL&amp;nbsp;&lt;font style=&quot;font-size: 10px&quot;&gt;&amp;lt;&lt;/font&gt;&lt;font style=&quot;font-size: 13px&quot;&gt;---&lt;/font&gt;&amp;nbsp; AH * AL&lt;br&gt;[SI]&amp;nbsp;&lt;font style=&quot;font-size: 10px&quot;&gt;&amp;lt;&lt;/font&gt;&lt;font style=&quot;font-size: 13px&quot;&gt;---&lt;/font&gt;&amp;nbsp; [SI] + AL" style="rounded=1;whiteSpace=wrap;html=1;fontSize=12;glass=0;strokeWidth=1;shadow=0;" vertex="1" parent="WIyWlLk6GJQsqaUBKTNV-1">
          <mxGeometry x="672" y="-920" width="115" height="100" as="geometry" />
        </mxCell>
        <mxCell id="YdiF8NEJK3TXLWIDRS3v-85" value="" style="edgeStyle=orthogonalEdgeStyle;rounded=0;orthogonalLoop=1;jettySize=auto;html=1;" edge="1" parent="WIyWlLk6GJQsqaUBKTNV-1" source="YdiF8NEJK3TXLWIDRS3v-86" target="YdiF8NEJK3TXLWIDRS3v-88">
          <mxGeometry relative="1" as="geometry" />
        </mxCell>
        <mxCell id="YdiF8NEJK3TXLWIDRS3v-86" value="AL&amp;nbsp;&lt;font style=&quot;font-size: 10px&quot;&gt;&amp;lt;&lt;/font&gt;&lt;font style=&quot;font-size: 13px&quot;&gt;---&lt;/font&gt;&amp;nbsp; [DI-2]&lt;br&gt;AL&amp;nbsp;&lt;font style=&quot;font-size: 10px&quot;&gt;&amp;lt;&lt;/font&gt;&lt;font style=&quot;font-size: 13px&quot;&gt;---&lt;/font&gt;&amp;nbsp; AL - 30h&lt;br&gt;AH&amp;nbsp;&lt;font style=&quot;font-size: 10px&quot;&gt;&amp;lt;&lt;/font&gt;&lt;font style=&quot;font-size: 13px&quot;&gt;---&lt;/font&gt;&amp;nbsp; 10d&lt;br&gt;AL&amp;nbsp;&lt;font style=&quot;font-size: 10px&quot;&gt;&amp;lt;&lt;/font&gt;&lt;font style=&quot;font-size: 13px&quot;&gt;---&lt;/font&gt;&amp;nbsp; AH * AL&lt;br&gt;[SI]&amp;nbsp;&lt;font style=&quot;font-size: 10px&quot;&gt;&amp;lt;&lt;/font&gt;&lt;font style=&quot;font-size: 13px&quot;&gt;---&lt;/font&gt;&amp;nbsp; [SI] + AL" style="rounded=1;whiteSpace=wrap;html=1;fontSize=12;glass=0;strokeWidth=1;shadow=0;" vertex="1" parent="WIyWlLk6GJQsqaUBKTNV-1">
          <mxGeometry x="672" y="-795" width="115" height="100" as="geometry" />
        </mxCell>
        <mxCell id="YdiF8NEJK3TXLWIDRS3v-87" value="" style="edgeStyle=orthogonalEdgeStyle;rounded=0;orthogonalLoop=1;jettySize=auto;html=1;" edge="1" parent="WIyWlLk6GJQsqaUBKTNV-1" source="YdiF8NEJK3TXLWIDRS3v-88" target="YdiF8NEJK3TXLWIDRS3v-89">
          <mxGeometry relative="1" as="geometry" />
        </mxCell>
        <mxCell id="YdiF8NEJK3TXLWIDRS3v-88" value="AL&amp;nbsp;&lt;font style=&quot;font-size: 10px&quot;&gt;&amp;lt;&lt;/font&gt;&lt;font style=&quot;font-size: 13px&quot;&gt;---&lt;/font&gt;&amp;nbsp; [DI-1]&lt;br&gt;AL&amp;nbsp;&lt;font style=&quot;font-size: 10px&quot;&gt;&amp;lt;&lt;/font&gt;&lt;font style=&quot;font-size: 13px&quot;&gt;---&lt;/font&gt;&amp;nbsp; AL - 30h&lt;br&gt;[SI]&amp;nbsp;&lt;font style=&quot;font-size: 10px&quot;&gt;&amp;lt;&lt;/font&gt;&lt;font style=&quot;font-size: 13px&quot;&gt;---&lt;/font&gt;&amp;nbsp; [SI] + AL" style="rounded=1;whiteSpace=wrap;html=1;fontSize=12;glass=0;strokeWidth=1;shadow=0;" vertex="1" parent="WIyWlLk6GJQsqaUBKTNV-1">
          <mxGeometry x="672" y="-670" width="115" height="60" as="geometry" />
        </mxCell>
        <mxCell id="YdiF8NEJK3TXLWIDRS3v-89" value="END" style="ellipse;whiteSpace=wrap;html=1;" vertex="1" parent="WIyWlLk6GJQsqaUBKTNV-1">
          <mxGeometry x="669.5" y="-584" width="120" height="40" as="geometry" />
        </mxCell>
        <mxCell id="YdiF8NEJK3TXLWIDRS3v-90" value="" style="edgeStyle=orthogonalEdgeStyle;rounded=0;orthogonalLoop=1;jettySize=auto;html=1;" edge="1" parent="WIyWlLk6GJQsqaUBKTNV-1" source="YdiF8NEJK3TXLWIDRS3v-91" target="YdiF8NEJK3TXLWIDRS3v-93">
          <mxGeometry relative="1" as="geometry" />
        </mxCell>
        <mxCell id="YdiF8NEJK3TXLWIDRS3v-91" value="square_Root" style="ellipse;whiteSpace=wrap;html=1;" vertex="1" parent="WIyWlLk6GJQsqaUBKTNV-1">
          <mxGeometry x="279.99999999999994" y="-490.5" width="120" height="40" as="geometry" />
        </mxCell>
        <mxCell id="YdiF8NEJK3TXLWIDRS3v-92" value="" style="edgeStyle=orthogonalEdgeStyle;rounded=0;orthogonalLoop=1;jettySize=auto;html=1;" edge="1" parent="WIyWlLk6GJQsqaUBKTNV-1" source="YdiF8NEJK3TXLWIDRS3v-93" target="YdiF8NEJK3TXLWIDRS3v-95">
          <mxGeometry relative="1" as="geometry" />
        </mxCell>
        <mxCell id="YdiF8NEJK3TXLWIDRS3v-93" value="BX&amp;nbsp;&lt;font style=&quot;font-size: 10px&quot;&gt;&amp;lt;&lt;/font&gt;&lt;font style=&quot;font-size: 13px&quot;&gt;---&lt;/font&gt;&amp;nbsp; [DI+2]&lt;br&gt;AL&amp;nbsp;&lt;font style=&quot;font-size: 10px&quot;&gt;&amp;lt;&lt;/font&gt;&lt;font style=&quot;font-size: 13px&quot;&gt;---&lt;/font&gt;&amp;nbsp; [SI]&lt;br&gt;AX&amp;nbsp;&lt;font style=&quot;font-size: 10px&quot;&gt;&amp;lt;&lt;/font&gt;&lt;font style=&quot;font-size: 13px&quot;&gt;---&lt;/font&gt;&amp;nbsp; AL*AL&lt;br&gt;BX&amp;nbsp;&lt;font style=&quot;font-size: 10px&quot;&gt;&amp;lt;&lt;/font&gt;&lt;font style=&quot;font-size: 13px&quot;&gt;---&lt;/font&gt;&amp;nbsp; BX - AX" style="rounded=1;whiteSpace=wrap;html=1;fontSize=12;glass=0;strokeWidth=1;shadow=0;" vertex="1" parent="WIyWlLk6GJQsqaUBKTNV-1">
          <mxGeometry x="420" y="-510.5" width="115" height="80" as="geometry" />
        </mxCell>
        <mxCell id="YdiF8NEJK3TXLWIDRS3v-94" value="" style="edgeStyle=orthogonalEdgeStyle;rounded=0;orthogonalLoop=1;jettySize=auto;html=1;" edge="1" parent="WIyWlLk6GJQsqaUBKTNV-1" source="YdiF8NEJK3TXLWIDRS3v-95" target="YdiF8NEJK3TXLWIDRS3v-100">
          <mxGeometry relative="1" as="geometry">
            <Array as="points">
              <mxPoint x="480" y="-370.5" />
              <mxPoint x="480" y="-370.5" />
            </Array>
          </mxGeometry>
        </mxCell>
        <mxCell id="YdiF8NEJK3TXLWIDRS3v-95" value="CL&amp;nbsp;&lt;font style=&quot;font-size: 10px&quot;&gt;&amp;lt;&lt;/font&gt;&lt;font style=&quot;font-size: 13px&quot;&gt;---&lt;/font&gt;&amp;nbsp; 0" style="rounded=1;whiteSpace=wrap;html=1;fontSize=12;glass=0;strokeWidth=1;shadow=0;" vertex="1" parent="WIyWlLk6GJQsqaUBKTNV-1">
          <mxGeometry x="423.94" y="-410.5" width="105.5" height="20" as="geometry" />
        </mxCell>
        <mxCell id="YdiF8NEJK3TXLWIDRS3v-96" value="AX &amp;gt; BX" style="rhombus;whiteSpace=wrap;html=1;shadow=0;fontFamily=Helvetica;fontSize=12;align=center;strokeWidth=1;spacing=6;spacingTop=-4;" vertex="1" parent="WIyWlLk6GJQsqaUBKTNV-1">
          <mxGeometry x="430.32" y="-310" width="100" height="30" as="geometry" />
        </mxCell>
        <mxCell id="YdiF8NEJK3TXLWIDRS3v-97" value="No" style="rounded=0;html=1;jettySize=auto;orthogonalLoop=1;fontSize=11;endArrow=block;endFill=0;endSize=8;strokeWidth=1;shadow=0;labelBackgroundColor=none;edgeStyle=orthogonalEdgeStyle;exitX=0.5;exitY=1;exitDx=0;exitDy=0;entryX=0.5;entryY=0;entryDx=0;entryDy=0;" edge="1" parent="WIyWlLk6GJQsqaUBKTNV-1" source="YdiF8NEJK3TXLWIDRS3v-96" target="YdiF8NEJK3TXLWIDRS3v-101">
          <mxGeometry x="-1" y="10" relative="1" as="geometry">
            <mxPoint as="offset" />
            <mxPoint x="477.5699999999999" y="-240.5" as="targetPoint" />
            <Array as="points">
              <mxPoint x="480" y="-260.5" />
            </Array>
            <mxPoint x="459.57" y="-229.25" as="sourcePoint" />
          </mxGeometry>
        </mxCell>
        <mxCell id="YdiF8NEJK3TXLWIDRS3v-98" value="END" style="ellipse;whiteSpace=wrap;html=1;" vertex="1" parent="WIyWlLk6GJQsqaUBKTNV-1">
          <mxGeometry x="300" y="-210.5" width="80" height="30" as="geometry" />
        </mxCell>
        <mxCell id="YdiF8NEJK3TXLWIDRS3v-99" value="" style="edgeStyle=orthogonalEdgeStyle;rounded=0;orthogonalLoop=1;jettySize=auto;html=1;entryX=0.5;entryY=0;entryDx=0;entryDy=0;" edge="1" parent="WIyWlLk6GJQsqaUBKTNV-1" source="YdiF8NEJK3TXLWIDRS3v-100" target="YdiF8NEJK3TXLWIDRS3v-96">
          <mxGeometry relative="1" as="geometry">
            <mxPoint x="479.44" y="-290.5" as="targetPoint" />
            <Array as="points">
              <mxPoint x="480" y="-320.5" />
              <mxPoint x="480" y="-320.5" />
              <mxPoint x="480" y="-309.5" />
            </Array>
          </mxGeometry>
        </mxCell>
        <mxCell id="YdiF8NEJK3TXLWIDRS3v-100" value="AL&amp;nbsp;&lt;font style=&quot;font-size: 10px&quot;&gt;&amp;lt;&lt;/font&gt;&lt;font style=&quot;font-size: 13px&quot;&gt;---&lt;/font&gt;&amp;nbsp; CL&lt;br&gt;AX&amp;nbsp;&lt;font style=&quot;font-size: 10px&quot;&gt;&amp;lt;&lt;/font&gt;&lt;font style=&quot;font-size: 13px&quot;&gt;---&lt;/font&gt;&amp;nbsp; AL*AL&lt;span style=&quot;color: rgba(0 , 0 , 0 , 0) ; font-family: monospace ; font-size: 0px&quot;&gt;%3CmxGraphModel%3E%3Croot%3E%3CmxCell%20id%3D%220%22%2F%3E%3CmxCell%20id%3D%221%22%20parent%3D%220%22%2F%3E%3CmxCell%20id%3D%222%22%20value%3D%22CL%26amp%3Bnbsp%3B%26lt%3Bfont%20style%3D%26quot%3Bfont-size%3A%2010px%26quot%3B%26gt%3B%26amp%3Blt%3B%26lt%3B%2Ffont%26gt%3B%26lt%3Bfont%20style%3D%26quot%3Bfont-size%3A%2013px%26quot%3B%26gt%3B---%26lt%3B%2Ffont%26gt%3B%26amp%3Bnbsp%3B%2016%26lt%3Bbr%26gt%3B%22%20style%3D%22rounded%3D1%3BwhiteSpace%3Dwrap%3Bhtml%3D1%3BfontSize%3D12%3Bglass%3D0%3BstrokeWidth%3D1%3Bshadow%3D0%3B%22%20vertex%3D%221%22%20parent%3D%221%22%3E%3CmxGeometry%20x%3D%2274.5%22%20y%3D%22-220%22%20width%3D%22105.5%22%20height%3D%2220%22%20as%3D%22geometry%22%2F%3E%3C%2FmxCell%3E%3C%2Froot%3E%3C%2FmxGraphModel%3E&lt;/span&gt;" style="rounded=1;whiteSpace=wrap;html=1;fontSize=12;glass=0;strokeWidth=1;shadow=0;" vertex="1" parent="WIyWlLk6GJQsqaUBKTNV-1">
          <mxGeometry x="427.57" y="-360.5" width="105.5" height="30" as="geometry" />
        </mxCell>
        <mxCell id="YdiF8NEJK3TXLWIDRS3v-101" value="AX = BX" style="rhombus;whiteSpace=wrap;html=1;shadow=0;fontFamily=Helvetica;fontSize=12;align=center;strokeWidth=1;spacing=6;spacingTop=-4;" vertex="1" parent="WIyWlLk6GJQsqaUBKTNV-1">
          <mxGeometry x="430.32" y="-260" width="100" height="30" as="geometry" />
        </mxCell>
        <mxCell id="YdiF8NEJK3TXLWIDRS3v-102" value="Yes" style="rounded=0;html=1;jettySize=auto;orthogonalLoop=1;fontSize=11;endArrow=block;endFill=0;endSize=8;strokeWidth=1;shadow=0;labelBackgroundColor=none;edgeStyle=orthogonalEdgeStyle;exitX=0;exitY=0.5;exitDx=0;exitDy=0;entryX=1;entryY=0.5;entryDx=0;entryDy=0;" edge="1" parent="WIyWlLk6GJQsqaUBKTNV-1" source="YdiF8NEJK3TXLWIDRS3v-96" target="YdiF8NEJK3TXLWIDRS3v-108">
          <mxGeometry x="-0.6697" y="10" relative="1" as="geometry">
            <mxPoint as="offset" />
            <mxPoint x="390" y="-310.5" as="targetPoint" />
            <Array as="points">
              <mxPoint x="410" y="-295.5" />
              <mxPoint x="410" y="-320.5" />
            </Array>
            <mxPoint x="450.38" y="-235.5" as="sourcePoint" />
          </mxGeometry>
        </mxCell>
        <mxCell id="YdiF8NEJK3TXLWIDRS3v-103" value="Yes" style="rounded=0;html=1;jettySize=auto;orthogonalLoop=1;fontSize=11;endArrow=block;endFill=0;endSize=8;strokeWidth=1;shadow=0;labelBackgroundColor=none;edgeStyle=orthogonalEdgeStyle;exitX=0;exitY=0.5;exitDx=0;exitDy=0;" edge="1" parent="WIyWlLk6GJQsqaUBKTNV-1" source="YdiF8NEJK3TXLWIDRS3v-101">
          <mxGeometry x="-0.812" y="10" relative="1" as="geometry">
            <mxPoint as="offset" />
            <mxPoint x="340" y="-245.5" as="targetPoint" />
            <Array as="points">
              <mxPoint x="340" y="-245.5" />
              <mxPoint x="390" y="-245.5" />
            </Array>
            <mxPoint x="539.44" y="-240.5" as="sourcePoint" />
          </mxGeometry>
        </mxCell>
        <mxCell id="YdiF8NEJK3TXLWIDRS3v-104" value="No" style="rounded=0;html=1;jettySize=auto;orthogonalLoop=1;fontSize=11;endArrow=block;endFill=0;endSize=8;strokeWidth=1;shadow=0;labelBackgroundColor=none;edgeStyle=orthogonalEdgeStyle;exitX=1;exitY=0.5;exitDx=0;exitDy=0;entryX=0.5;entryY=1;entryDx=0;entryDy=0;" edge="1" parent="WIyWlLk6GJQsqaUBKTNV-1" source="YdiF8NEJK3TXLWIDRS3v-101" target="YdiF8NEJK3TXLWIDRS3v-106">
          <mxGeometry x="-0.8498" y="-5" relative="1" as="geometry">
            <mxPoint as="offset" />
            <mxPoint x="560" y="-245.5" as="targetPoint" />
            <Array as="points">
              <mxPoint x="570" y="-245.5" />
            </Array>
            <mxPoint x="487.56999999999994" y="-275.5" as="sourcePoint" />
          </mxGeometry>
        </mxCell>
        <mxCell id="YdiF8NEJK3TXLWIDRS3v-105" style="edgeStyle=orthogonalEdgeStyle;rounded=0;orthogonalLoop=1;jettySize=auto;html=1;exitX=0.5;exitY=0;exitDx=0;exitDy=0;" edge="1" parent="WIyWlLk6GJQsqaUBKTNV-1" source="YdiF8NEJK3TXLWIDRS3v-106">
          <mxGeometry relative="1" as="geometry">
            <mxPoint x="480" y="-380.5" as="targetPoint" />
            <Array as="points">
              <mxPoint x="570" y="-380.5" />
            </Array>
          </mxGeometry>
        </mxCell>
        <mxCell id="YdiF8NEJK3TXLWIDRS3v-106" value="CL&amp;nbsp;&lt;font style=&quot;font-size: 10px&quot;&gt;&amp;lt;&lt;/font&gt;&lt;font style=&quot;font-size: 13px&quot;&gt;---&lt;/font&gt;&amp;nbsp; CL + 1" style="rounded=1;whiteSpace=wrap;html=1;fontSize=12;glass=0;strokeWidth=1;shadow=0;" vertex="1" parent="WIyWlLk6GJQsqaUBKTNV-1">
          <mxGeometry x="525.75" y="-280" width="88.5" height="20" as="geometry" />
        </mxCell>
        <mxCell id="YdiF8NEJK3TXLWIDRS3v-107" style="edgeStyle=orthogonalEdgeStyle;rounded=0;orthogonalLoop=1;jettySize=auto;html=1;exitX=0.5;exitY=1;exitDx=0;exitDy=0;entryX=0.5;entryY=0;entryDx=0;entryDy=0;" edge="1" parent="WIyWlLk6GJQsqaUBKTNV-1" source="YdiF8NEJK3TXLWIDRS3v-108" target="YdiF8NEJK3TXLWIDRS3v-98">
          <mxGeometry relative="1" as="geometry">
            <mxPoint x="340" y="-240.5" as="targetPoint" />
            <Array as="points" />
          </mxGeometry>
        </mxCell>
        <mxCell id="YdiF8NEJK3TXLWIDRS3v-108" value="CL&amp;nbsp;&lt;font style=&quot;font-size: 10px&quot;&gt;&amp;lt;&lt;/font&gt;&lt;font style=&quot;font-size: 13px&quot;&gt;---&lt;/font&gt;&amp;nbsp; CL - 1" style="rounded=1;whiteSpace=wrap;html=1;fontSize=12;glass=0;strokeWidth=1;shadow=0;" vertex="1" parent="WIyWlLk6GJQsqaUBKTNV-1">
          <mxGeometry x="295.75" y="-330.5" width="88.5" height="20" as="geometry" />
        </mxCell>
        <mxCell id="YdiF8NEJK3TXLWIDRS3v-133" value="" style="edgeStyle=orthogonalEdgeStyle;rounded=0;orthogonalLoop=1;jettySize=auto;html=1;" edge="1" parent="WIyWlLk6GJQsqaUBKTNV-1" source="YdiF8NEJK3TXLWIDRS3v-134" target="YdiF8NEJK3TXLWIDRS3v-136">
          <mxGeometry relative="1" as="geometry" />
        </mxCell>
        <mxCell id="YdiF8NEJK3TXLWIDRS3v-134" value="all_Y_values" style="ellipse;whiteSpace=wrap;html=1;" vertex="1" parent="WIyWlLk6GJQsqaUBKTNV-1">
          <mxGeometry x="219.51" y="40" width="120" height="40" as="geometry" />
        </mxCell>
        <mxCell id="YdiF8NEJK3TXLWIDRS3v-168" value="" style="edgeStyle=orthogonalEdgeStyle;rounded=0;orthogonalLoop=1;jettySize=auto;html=1;" edge="1" parent="WIyWlLk6GJQsqaUBKTNV-1" source="YdiF8NEJK3TXLWIDRS3v-136" target="YdiF8NEJK3TXLWIDRS3v-167">
          <mxGeometry relative="1" as="geometry" />
        </mxCell>
        <mxCell id="YdiF8NEJK3TXLWIDRS3v-136" value="SI&amp;nbsp;&lt;font style=&quot;font-size: 10px&quot;&gt;&amp;lt;&lt;/font&gt;&lt;font style=&quot;font-size: 13px&quot;&gt;---&lt;/font&gt;&amp;nbsp; 50h&lt;br&gt;CL&amp;nbsp;&lt;font style=&quot;font-size: 10px;&quot;&gt;&amp;lt;&lt;/font&gt;&lt;font style=&quot;font-size: 13px;&quot;&gt;---&lt;/font&gt;&amp;nbsp; [SI]&lt;br&gt;DI&amp;nbsp;&lt;font style=&quot;font-size: 10px&quot;&gt;&amp;lt;&lt;/font&gt;&lt;font style=&quot;font-size: 13px&quot;&gt;---&lt;/font&gt;&amp;nbsp;700h&lt;br&gt;[DI+1]&amp;nbsp;&lt;font style=&quot;font-size: 10px;&quot;&gt;&amp;lt;&lt;/font&gt;&lt;font style=&quot;font-size: 13px;&quot;&gt;---&lt;/font&gt;&amp;nbsp; 0h&lt;br&gt;[DI+2]&amp;nbsp;&lt;font style=&quot;font-size: 10px;&quot;&gt;&amp;lt;&lt;/font&gt;&lt;font style=&quot;font-size: 13px;&quot;&gt;---&lt;/font&gt;&amp;nbsp; 0h&lt;br&gt;[DI+3]&amp;nbsp;&lt;font style=&quot;font-size: 10px;&quot;&gt;&amp;lt;&lt;/font&gt;&lt;font style=&quot;font-size: 13px;&quot;&gt;---&lt;/font&gt;&amp;nbsp; 0h&lt;br&gt;" style="rounded=1;whiteSpace=wrap;html=1;fontSize=12;glass=0;strokeWidth=1;shadow=0;" vertex="1" parent="WIyWlLk6GJQsqaUBKTNV-1">
          <mxGeometry x="224.51" y="100" width="110" height="110" as="geometry" />
        </mxCell>
        <mxCell id="YdiF8NEJK3TXLWIDRS3v-149" value="" style="edgeStyle=orthogonalEdgeStyle;rounded=0;orthogonalLoop=1;jettySize=auto;html=1;" edge="1" parent="WIyWlLk6GJQsqaUBKTNV-1" source="YdiF8NEJK3TXLWIDRS3v-150" target="YdiF8NEJK3TXLWIDRS3v-152">
          <mxGeometry relative="1" as="geometry" />
        </mxCell>
        <mxCell id="YdiF8NEJK3TXLWIDRS3v-150" value="AH&amp;nbsp;&lt;font style=&quot;font-size: 10px&quot;&gt;&amp;lt;&lt;/font&gt;&lt;font style=&quot;font-size: 13px&quot;&gt;---&lt;/font&gt;&amp;nbsp;00" style="rounded=1;whiteSpace=wrap;html=1;fontSize=12;glass=0;strokeWidth=1;shadow=0;" vertex="1" parent="WIyWlLk6GJQsqaUBKTNV-1">
          <mxGeometry x="87" y="-594.5" width="100" height="20" as="geometry" />
        </mxCell>
        <mxCell id="YdiF8NEJK3TXLWIDRS3v-161" value="" style="edgeStyle=orthogonalEdgeStyle;rounded=0;orthogonalLoop=1;jettySize=auto;html=1;" edge="1" parent="WIyWlLk6GJQsqaUBKTNV-1" source="YdiF8NEJK3TXLWIDRS3v-152" target="YdiF8NEJK3TXLWIDRS3v-26">
          <mxGeometry relative="1" as="geometry" />
        </mxCell>
        <mxCell id="YdiF8NEJK3TXLWIDRS3v-152" value="INT 16h" style="shape=process;whiteSpace=wrap;html=1;backgroundOutline=1;" vertex="1" parent="WIyWlLk6GJQsqaUBKTNV-1">
          <mxGeometry x="77" y="-554.5" width="120" height="20" as="geometry" />
        </mxCell>
        <mxCell id="YdiF8NEJK3TXLWIDRS3v-156" value="" style="edgeStyle=orthogonalEdgeStyle;rounded=0;orthogonalLoop=1;jettySize=auto;html=1;" edge="1" parent="WIyWlLk6GJQsqaUBKTNV-1" source="YdiF8NEJK3TXLWIDRS3v-157" target="YdiF8NEJK3TXLWIDRS3v-158">
          <mxGeometry relative="1" as="geometry" />
        </mxCell>
        <mxCell id="YdiF8NEJK3TXLWIDRS3v-157" value="AH&amp;nbsp;&lt;font style=&quot;font-size: 10px&quot;&gt;&amp;lt;&lt;/font&gt;&lt;font style=&quot;font-size: 13px&quot;&gt;---&lt;/font&gt;&amp;nbsp;00" style="rounded=1;whiteSpace=wrap;html=1;fontSize=12;glass=0;strokeWidth=1;shadow=0;" vertex="1" parent="WIyWlLk6GJQsqaUBKTNV-1">
          <mxGeometry x="87.01" y="-731" width="100" height="20" as="geometry" />
        </mxCell>
        <mxCell id="YdiF8NEJK3TXLWIDRS3v-160" style="edgeStyle=orthogonalEdgeStyle;rounded=0;orthogonalLoop=1;jettySize=auto;html=1;" edge="1" parent="WIyWlLk6GJQsqaUBKTNV-1" source="YdiF8NEJK3TXLWIDRS3v-158" target="YdiF8NEJK3TXLWIDRS3v-21">
          <mxGeometry relative="1" as="geometry" />
        </mxCell>
        <mxCell id="YdiF8NEJK3TXLWIDRS3v-158" value="INT 16h" style="shape=process;whiteSpace=wrap;html=1;backgroundOutline=1;" vertex="1" parent="WIyWlLk6GJQsqaUBKTNV-1">
          <mxGeometry x="77" y="-690" width="120" height="20" as="geometry" />
        </mxCell>
        <mxCell id="YdiF8NEJK3TXLWIDRS3v-171" value="" style="edgeStyle=orthogonalEdgeStyle;rounded=0;orthogonalLoop=1;jettySize=auto;html=1;" edge="1" parent="WIyWlLk6GJQsqaUBKTNV-1" source="YdiF8NEJK3TXLWIDRS3v-167" target="YdiF8NEJK3TXLWIDRS3v-170">
          <mxGeometry relative="1" as="geometry" />
        </mxCell>
        <mxCell id="YdiF8NEJK3TXLWIDRS3v-167" value="[DI]&amp;nbsp;&lt;font style=&quot;font-size: 10px;&quot;&gt;&amp;lt;&lt;/font&gt;&lt;font style=&quot;font-size: 13px;&quot;&gt;---&lt;/font&gt;&amp;nbsp; CL&lt;br&gt;CL&amp;nbsp;&lt;font style=&quot;font-size: 10px;&quot;&gt;&amp;lt;&lt;/font&gt;&lt;font style=&quot;font-size: 13px;&quot;&gt;---&lt;/font&gt;&amp;nbsp; CL + 1&lt;br&gt;[DI+1]&amp;nbsp;&lt;font style=&quot;font-size: 10px;&quot;&gt;&amp;lt;&lt;/font&gt;&lt;font style=&quot;font-size: 13px;&quot;&gt;---&lt;/font&gt;&amp;nbsp; CL&lt;br&gt;AX&amp;nbsp;&lt;font style=&quot;font-size: 10px;&quot;&gt;&amp;lt;&lt;/font&gt;&lt;font style=&quot;font-size: 13px;&quot;&gt;---&lt;/font&gt;&amp;nbsp; [SI]&lt;br&gt;AX&amp;nbsp;&lt;font style=&quot;font-size: 10px;&quot;&gt;&amp;lt;&lt;/font&gt;&lt;font style=&quot;font-size: 13px;&quot;&gt;---&lt;/font&gt;&amp;nbsp; AX*AX&lt;br&gt;[DI+2]&amp;nbsp;&lt;font style=&quot;font-size: 10px;&quot;&gt;&amp;lt;&lt;/font&gt;&lt;font style=&quot;font-size: 13px;&quot;&gt;---&lt;/font&gt;&amp;nbsp; AX" style="rounded=1;whiteSpace=wrap;html=1;fontSize=12;glass=0;strokeWidth=1;shadow=0;" vertex="1" parent="WIyWlLk6GJQsqaUBKTNV-1">
          <mxGeometry x="364.51" y="102.5" width="110" height="105" as="geometry" />
        </mxCell>
        <mxCell id="YdiF8NEJK3TXLWIDRS3v-173" value="" style="edgeStyle=orthogonalEdgeStyle;rounded=0;orthogonalLoop=1;jettySize=auto;html=1;" edge="1" parent="WIyWlLk6GJQsqaUBKTNV-1" source="YdiF8NEJK3TXLWIDRS3v-170" target="YdiF8NEJK3TXLWIDRS3v-172">
          <mxGeometry relative="1" as="geometry">
            <Array as="points">
              <mxPoint x="322.01" y="249" />
              <mxPoint x="322.01" y="249" />
            </Array>
          </mxGeometry>
        </mxCell>
        <mxCell id="YdiF8NEJK3TXLWIDRS3v-170" value="SI&amp;nbsp;&lt;font style=&quot;font-size: 10px;&quot;&gt;&amp;lt;&lt;/font&gt;&lt;font style=&quot;font-size: 13px;&quot;&gt;---&lt;/font&gt;&amp;nbsp; OFFSET y_values&lt;br&gt;DL&amp;nbsp;&lt;font style=&quot;font-size: 10px;&quot;&gt;&amp;lt;&lt;/font&gt;&lt;font style=&quot;font-size: 13px;&quot;&gt;---&lt;/font&gt;&amp;nbsp; 0" style="rounded=1;whiteSpace=wrap;html=1;fontSize=12;glass=0;strokeWidth=1;shadow=0;" vertex="1" parent="WIyWlLk6GJQsqaUBKTNV-1">
          <mxGeometry x="346.64" y="231.25" width="145.75" height="35" as="geometry" />
        </mxCell>
        <mxCell id="YdiF8NEJK3TXLWIDRS3v-179" style="edgeStyle=orthogonalEdgeStyle;rounded=0;orthogonalLoop=1;jettySize=auto;html=1;entryX=0.5;entryY=0;entryDx=0;entryDy=0;" edge="1" parent="WIyWlLk6GJQsqaUBKTNV-1" source="YdiF8NEJK3TXLWIDRS3v-172" target="YdiF8NEJK3TXLWIDRS3v-174">
          <mxGeometry relative="1" as="geometry" />
        </mxCell>
        <mxCell id="YdiF8NEJK3TXLWIDRS3v-172" value="CL&amp;nbsp;&lt;font style=&quot;font-size: 10px&quot;&gt;&amp;lt;&lt;/font&gt;&lt;font style=&quot;font-size: 13px&quot;&gt;---&lt;/font&gt;&amp;nbsp; [DI]" style="rounded=1;whiteSpace=wrap;html=1;fontSize=12;glass=0;strokeWidth=1;shadow=0;" vertex="1" parent="WIyWlLk6GJQsqaUBKTNV-1">
          <mxGeometry x="225.26" y="237.5" width="88.5" height="22.5" as="geometry" />
        </mxCell>
        <mxCell id="YdiF8NEJK3TXLWIDRS3v-174" value="DL = CL" style="rhombus;whiteSpace=wrap;html=1;shadow=0;fontFamily=Helvetica;fontSize=12;align=center;strokeWidth=1;spacing=6;spacingTop=-4;" vertex="1" parent="WIyWlLk6GJQsqaUBKTNV-1">
          <mxGeometry x="219.51" y="286.75" width="100" height="35" as="geometry" />
        </mxCell>
        <mxCell id="YdiF8NEJK3TXLWIDRS3v-175" value="No" style="rounded=0;html=1;jettySize=auto;orthogonalLoop=1;fontSize=11;endArrow=block;endFill=0;endSize=8;strokeWidth=1;shadow=0;labelBackgroundColor=none;edgeStyle=orthogonalEdgeStyle;exitX=1;exitY=0.5;exitDx=0;exitDy=0;entryX=0;entryY=0.5;entryDx=0;entryDy=0;" edge="1" parent="WIyWlLk6GJQsqaUBKTNV-1" source="YdiF8NEJK3TXLWIDRS3v-174" target="YdiF8NEJK3TXLWIDRS3v-176">
          <mxGeometry x="-0.3115" y="-10" relative="1" as="geometry">
            <mxPoint as="offset" />
            <mxPoint x="432.56999999999994" y="304.25" as="targetPoint" />
            <Array as="points">
              <mxPoint x="320.01" y="304" />
            </Array>
            <mxPoint x="395.56999999999994" y="359.25" as="sourcePoint" />
          </mxGeometry>
        </mxCell>
        <mxCell id="YdiF8NEJK3TXLWIDRS3v-182" value="" style="edgeStyle=orthogonalEdgeStyle;rounded=0;orthogonalLoop=1;jettySize=auto;html=1;" edge="1" parent="WIyWlLk6GJQsqaUBKTNV-1" source="YdiF8NEJK3TXLWIDRS3v-176" target="YdiF8NEJK3TXLWIDRS3v-181">
          <mxGeometry relative="1" as="geometry" />
        </mxCell>
        <mxCell id="YdiF8NEJK3TXLWIDRS3v-176" value="[SI]&amp;nbsp;&lt;font style=&quot;font-size: 10px&quot;&gt;&amp;lt;&lt;/font&gt;&lt;font style=&quot;font-size: 13px&quot;&gt;---&lt;/font&gt;&amp;nbsp; DL" style="rounded=1;whiteSpace=wrap;html=1;fontSize=12;glass=0;strokeWidth=1;shadow=0;" vertex="1" parent="WIyWlLk6GJQsqaUBKTNV-1">
          <mxGeometry x="346.6399999999999" y="294.25" width="88.5" height="20" as="geometry" />
        </mxCell>
        <mxCell id="YdiF8NEJK3TXLWIDRS3v-177" value="Yes" style="rounded=0;html=1;jettySize=auto;orthogonalLoop=1;fontSize=11;endArrow=block;endFill=0;endSize=8;strokeWidth=1;shadow=0;labelBackgroundColor=none;edgeStyle=orthogonalEdgeStyle;exitX=0.5;exitY=1;exitDx=0;exitDy=0;entryX=0.5;entryY=0;entryDx=0;entryDy=0;" edge="1" parent="WIyWlLk6GJQsqaUBKTNV-1" source="YdiF8NEJK3TXLWIDRS3v-174" target="YdiF8NEJK3TXLWIDRS3v-178">
          <mxGeometry x="-0.9374" y="-14" relative="1" as="geometry">
            <mxPoint as="offset" />
            <mxPoint x="326.81999999999994" y="357" as="targetPoint" />
            <Array as="points">
              <mxPoint x="269.26" y="332.75" />
              <mxPoint x="269.26" y="332.75" />
            </Array>
            <mxPoint x="391.06999999999994" y="317" as="sourcePoint" />
          </mxGeometry>
        </mxCell>
        <mxCell id="YdiF8NEJK3TXLWIDRS3v-200" style="edgeStyle=orthogonalEdgeStyle;rounded=0;orthogonalLoop=1;jettySize=auto;html=1;entryX=0.5;entryY=0;entryDx=0;entryDy=0;" edge="1" parent="WIyWlLk6GJQsqaUBKTNV-1" source="YdiF8NEJK3TXLWIDRS3v-178" target="YdiF8NEJK3TXLWIDRS3v-188">
          <mxGeometry relative="1" as="geometry" />
        </mxCell>
        <mxCell id="YdiF8NEJK3TXLWIDRS3v-178" value="[SI]&amp;nbsp;&lt;font style=&quot;font-size: 10px&quot;&gt;&amp;lt;&lt;/font&gt;&lt;font style=&quot;font-size: 13px&quot;&gt;---&lt;/font&gt;&amp;nbsp; 0&lt;br&gt;[SI+1]&amp;nbsp;&lt;font style=&quot;font-size: 10px;&quot;&gt;&amp;lt;&lt;/font&gt;&lt;font style=&quot;font-size: 13px;&quot;&gt;---&lt;/font&gt;&amp;nbsp; 24h" style="rounded=1;whiteSpace=wrap;html=1;fontSize=12;glass=0;strokeWidth=1;shadow=0;" vertex="1" parent="WIyWlLk6GJQsqaUBKTNV-1">
          <mxGeometry x="225.26" y="343.25" width="88.5" height="39.5" as="geometry" />
        </mxCell>
        <mxCell id="YdiF8NEJK3TXLWIDRS3v-184" value="" style="edgeStyle=orthogonalEdgeStyle;rounded=0;orthogonalLoop=1;jettySize=auto;html=1;" edge="1" parent="WIyWlLk6GJQsqaUBKTNV-1" source="YdiF8NEJK3TXLWIDRS3v-181" target="YdiF8NEJK3TXLWIDRS3v-183">
          <mxGeometry relative="1" as="geometry" />
        </mxCell>
        <mxCell id="YdiF8NEJK3TXLWIDRS3v-181" value="CALL&amp;nbsp; square_Root" style="shape=process;whiteSpace=wrap;html=1;backgroundOutline=1;" vertex="1" parent="WIyWlLk6GJQsqaUBKTNV-1">
          <mxGeometry x="457.39" y="289.5" width="137.5" height="29.5" as="geometry" />
        </mxCell>
        <mxCell id="YdiF8NEJK3TXLWIDRS3v-183" value="[SI]&amp;nbsp;&lt;font style=&quot;font-size: 10px&quot;&gt;&amp;lt;&lt;/font&gt;&lt;font style=&quot;font-size: 13px&quot;&gt;---&lt;/font&gt;&amp;nbsp; CL&lt;br&gt;SI&amp;nbsp;&lt;font style=&quot;font-size: 10px&quot;&gt;&amp;lt;&lt;/font&gt;&lt;font style=&quot;font-size: 13px&quot;&gt;---&lt;/font&gt;&amp;nbsp; SI + 1&lt;br&gt;DL&amp;nbsp;&lt;font style=&quot;font-size: 10px&quot;&gt;&amp;lt;&lt;/font&gt;&lt;font style=&quot;font-size: 13px&quot;&gt;---&lt;/font&gt;&amp;nbsp; DL + 1" style="rounded=1;whiteSpace=wrap;html=1;fontSize=12;glass=0;strokeWidth=1;shadow=0;" vertex="1" parent="WIyWlLk6GJQsqaUBKTNV-1">
          <mxGeometry x="468.64" y="340.5" width="115" height="50" as="geometry" />
        </mxCell>
        <mxCell id="YdiF8NEJK3TXLWIDRS3v-185" style="edgeStyle=orthogonalEdgeStyle;rounded=0;orthogonalLoop=1;jettySize=auto;html=1;exitX=1;exitY=0.5;exitDx=0;exitDy=0;" edge="1" parent="WIyWlLk6GJQsqaUBKTNV-1" source="YdiF8NEJK3TXLWIDRS3v-183">
          <mxGeometry relative="1" as="geometry">
            <mxPoint x="332.01" y="250" as="targetPoint" />
            <Array as="points">
              <mxPoint x="602.01" y="366" />
              <mxPoint x="602.01" y="280" />
              <mxPoint x="332.01" y="280" />
            </Array>
            <mxPoint x="582.01" y="450" as="sourcePoint" />
          </mxGeometry>
        </mxCell>
        <mxCell id="YdiF8NEJK3TXLWIDRS3v-187" style="edgeStyle=orthogonalEdgeStyle;rounded=0;orthogonalLoop=1;jettySize=auto;html=1;exitX=1;exitY=0.5;exitDx=0;exitDy=0;" edge="1" parent="WIyWlLk6GJQsqaUBKTNV-1" source="YdiF8NEJK3TXLWIDRS3v-188" target="YdiF8NEJK3TXLWIDRS3v-190">
          <mxGeometry relative="1" as="geometry" />
        </mxCell>
        <mxCell id="YdiF8NEJK3TXLWIDRS3v-188" value="CALL&amp;nbsp; videoMode" style="shape=process;whiteSpace=wrap;html=1;backgroundOutline=1;" vertex="1" parent="WIyWlLk6GJQsqaUBKTNV-1">
          <mxGeometry x="205.76" y="410" width="127.5" height="30" as="geometry" />
        </mxCell>
        <mxCell id="YdiF8NEJK3TXLWIDRS3v-189" style="edgeStyle=orthogonalEdgeStyle;rounded=0;orthogonalLoop=1;jettySize=auto;html=1;exitX=0.5;exitY=1;exitDx=0;exitDy=0;entryX=0.5;entryY=0;entryDx=0;entryDy=0;" edge="1" parent="WIyWlLk6GJQsqaUBKTNV-1" source="YdiF8NEJK3TXLWIDRS3v-190" target="YdiF8NEJK3TXLWIDRS3v-191">
          <mxGeometry relative="1" as="geometry" />
        </mxCell>
        <mxCell id="YdiF8NEJK3TXLWIDRS3v-190" value="CALL&amp;nbsp; videoMode" style="shape=process;whiteSpace=wrap;html=1;backgroundOutline=1;" vertex="1" parent="WIyWlLk6GJQsqaUBKTNV-1">
          <mxGeometry x="361.01" y="410" width="127.5" height="30" as="geometry" />
        </mxCell>
        <mxCell id="YdiF8NEJK3TXLWIDRS3v-201" style="edgeStyle=orthogonalEdgeStyle;rounded=0;orthogonalLoop=1;jettySize=auto;html=1;entryX=1;entryY=0.5;entryDx=0;entryDy=0;" edge="1" parent="WIyWlLk6GJQsqaUBKTNV-1" source="YdiF8NEJK3TXLWIDRS3v-191" target="YdiF8NEJK3TXLWIDRS3v-193">
          <mxGeometry relative="1" as="geometry" />
        </mxCell>
        <mxCell id="YdiF8NEJK3TXLWIDRS3v-191" value="CALL&amp;nbsp; rightUp" style="shape=process;whiteSpace=wrap;html=1;backgroundOutline=1;" vertex="1" parent="WIyWlLk6GJQsqaUBKTNV-1">
          <mxGeometry x="361.01" y="460" width="127.5" height="30" as="geometry" />
        </mxCell>
        <mxCell id="YdiF8NEJK3TXLWIDRS3v-193" value="CALL&amp;nbsp; rightDown" style="shape=process;whiteSpace=wrap;html=1;backgroundOutline=1;" vertex="1" parent="WIyWlLk6GJQsqaUBKTNV-1">
          <mxGeometry x="205.76" y="460" width="127.5" height="30" as="geometry" />
        </mxCell>
        <mxCell id="YdiF8NEJK3TXLWIDRS3v-194" style="edgeStyle=orthogonalEdgeStyle;rounded=0;orthogonalLoop=1;jettySize=auto;html=1;exitX=0.5;exitY=1;exitDx=0;exitDy=0;entryX=0.5;entryY=0;entryDx=0;entryDy=0;" edge="1" parent="WIyWlLk6GJQsqaUBKTNV-1" source="YdiF8NEJK3TXLWIDRS3v-193" target="YdiF8NEJK3TXLWIDRS3v-195">
          <mxGeometry relative="1" as="geometry">
            <mxPoint x="275.1399999999999" y="595" as="sourcePoint" />
          </mxGeometry>
        </mxCell>
        <mxCell id="YdiF8NEJK3TXLWIDRS3v-202" value="" style="edgeStyle=orthogonalEdgeStyle;rounded=0;orthogonalLoop=1;jettySize=auto;html=1;" edge="1" parent="WIyWlLk6GJQsqaUBKTNV-1" source="YdiF8NEJK3TXLWIDRS3v-195" target="YdiF8NEJK3TXLWIDRS3v-197">
          <mxGeometry relative="1" as="geometry" />
        </mxCell>
        <mxCell id="YdiF8NEJK3TXLWIDRS3v-195" value="CALL&amp;nbsp; leftDown" style="shape=process;whiteSpace=wrap;html=1;backgroundOutline=1;" vertex="1" parent="WIyWlLk6GJQsqaUBKTNV-1">
          <mxGeometry x="205.76" y="510" width="127.5" height="30" as="geometry" />
        </mxCell>
        <mxCell id="YdiF8NEJK3TXLWIDRS3v-204" value="" style="edgeStyle=orthogonalEdgeStyle;rounded=0;orthogonalLoop=1;jettySize=auto;html=1;" edge="1" parent="WIyWlLk6GJQsqaUBKTNV-1" source="YdiF8NEJK3TXLWIDRS3v-197" target="YdiF8NEJK3TXLWIDRS3v-203">
          <mxGeometry relative="1" as="geometry" />
        </mxCell>
        <mxCell id="YdiF8NEJK3TXLWIDRS3v-197" value="CALL&amp;nbsp; leftUp" style="shape=process;whiteSpace=wrap;html=1;backgroundOutline=1;" vertex="1" parent="WIyWlLk6GJQsqaUBKTNV-1">
          <mxGeometry x="361.01" y="510" width="127.5" height="30" as="geometry" />
        </mxCell>
        <mxCell id="YdiF8NEJK3TXLWIDRS3v-203" value="END" style="ellipse;whiteSpace=wrap;html=1;" vertex="1" parent="WIyWlLk6GJQsqaUBKTNV-1">
          <mxGeometry x="514.89" y="510" width="80" height="30" as="geometry" />
        </mxCell>
      </root>
    </mxGraphModel>
  </diagram>
</mxfile>
